<svg xmlns="http://www.w3.org/2000/svg" xmlns:xlink="http://www.w3.org/1999/xlink" width="400" zoomAndPan="magnify" viewBox="0 0 300 149.999998" height="200" preserveAspectRatio="xMidYMid meet" version="1.0"><defs><clipPath id="342d022c8c"><path d="M 48 20 L 142 20 L 142 148 L 48 148 Z M 48 20 " clip-rule="nonzero"/></clipPath><clipPath id="98e03e83a6"><path d="M 41.679688 26.855469 L 137.636719 16.933594 L 150.449219 140.835938 L 54.488281 150.757812 Z M 41.679688 26.855469 " clip-rule="nonzero"/></clipPath><clipPath id="75a736ade4"><path d="M 141.515625 62.683594 C 114.546875 85.714844 104.480469 92.121094 97.332031 96.113281 C 92.183594 99 88.078125 100.972656 83.457031 102.667969 C 79.070312 104.261719 73.925781 105.605469 70.234375 106.066406 C 67.667969 106.414062 65.710938 106.371094 63.5625 106.027344 C 61.492188 105.671875 59.503906 105.308594 57.585938 104.042969 C 55.0625 102.433594 51.773438 98.953125 50.292969 96.421875 C 49.199219 94.503906 49.007812 92.652344 48.714844 90.570312 C 48.390625 88.246094 48.214844 85.746094 48.4375 83.203125 C 48.636719 80.417969 49.3125 77.5 50.226562 74.5625 C 51.199219 71.371094 52.789062 67.875 54.113281 64.972656 C 55.3125 62.410156 56.320312 60.355469 57.855469 57.921875 C 59.601562 55.136719 61.804688 52.066406 64.039062 49.3125 C 66.347656 46.472656 68.609375 43.964844 71.71875 41.039062 C 75.722656 37.292969 82.230469 31.824219 86.484375 28.945312 C 89.367188 26.941406 91.605469 25.8125 94.242188 24.566406 C 96.878906 23.316406 99.777344 22.285156 102.472656 21.601562 C 105.003906 20.933594 107.714844 20.410156 110.160156 20.480469 C 112.355469 20.496094 114.667969 20.828125 116.464844 21.699219 C 118.171875 22.496094 119.714844 24.046875 120.902344 25.304688 C 121.902344 26.339844 122.65625 27.320312 123.277344 28.636719 C 124.007812 30.1875 124.503906 31.84375 124.746094 34.175781 C 125.152344 38.117188 124.710938 44.828125 123.875 50.117188 C 123.054688 55.566406 121.792969 59.84375 119.707031 66.402344 C 116.257812 77.082031 108.355469 96.597656 103.566406 107.660156 C 100.285156 115.234375 97.527344 120.804688 94.464844 126.570312 C 91.8125 131.558594 89.074219 136.558594 86.289062 140.257812 C 84.070312 143.171875 81.542969 146.277344 79.535156 147.296875 C 78.378906 147.90625 77.183594 148.109375 76.335938 147.792969 C 75.570312 147.464844 74.972656 146.390625 74.558594 145.539062 C 74.144531 144.6875 73.964844 143.730469 73.921875 142.515625 C 73.90625 140.808594 74.324219 138.570312 74.90625 136.316406 C 75.597656 133.5625 76.617188 130.855469 78.199219 127.277344 C 80.625 121.660156 84.574219 113.445312 88.867188 106.253906 C 93.789062 98.023438 100.765625 88.441406 106.726562 80.832031 C 111.894531 74.199219 118.453125 66.855469 122.125 63.0625 C 123.960938 61.164062 125.464844 59.222656 126.503906 59.03125 C 126.984375 58.984375 127.75 59.308594 127.777344 59.550781 C 127.808594 59.871094 126.847656 60.785156 126.597656 60.730469 C 126.347656 60.675781 126.070312 59.566406 126.207031 59.308594 C 126.34375 59.050781 127.226562 58.957031 127.492188 59.175781 C 127.761719 59.390625 127.808594 59.871094 127.554688 60.550781 C 126.488281 63.585938 114.527344 74.496094 108.492188 82.195312 C 102.234375 90.078125 95.78125 99.199219 90.851562 107.351562 C 86.628906 114.453125 82.671875 122.585938 80.308594 128.03125 C 78.792969 131.441406 77.84375 134.058594 77.136719 136.652344 C 76.609375 138.660156 76.085938 140.664062 76.074219 142.128906 C 76.085938 143.023438 76 143.761719 76.390625 144.371094 C 76.769531 144.902344 77.496094 145.640625 78.300781 145.558594 C 79.828125 145.398438 82.382812 141.800781 84.464844 139.148438 C 87.191406 135.613281 89.917969 130.535156 92.578125 125.625 C 95.648438 119.941406 98.773438 113.199219 101.609375 106.808594 C 104.441406 100.417969 106.78125 94.726562 109.523438 87.453125 C 112.980469 78.398438 118.109375 65.105469 120.316406 56.582031 C 121.824219 50.734375 122.589844 45.535156 122.816406 41.449219 C 123.023438 38.742188 122.894531 36.722656 122.597656 34.640625 C 122.335938 32.878906 122.265625 31.421875 121.449219 29.800781 C 120.347656 27.800781 118.019531 24.953125 115.949219 23.785156 C 114.222656 22.824219 112.339844 22.695312 110.386719 22.652344 C 108.179688 22.554688 105.628906 23.0625 103.171875 23.644531 C 100.558594 24.320312 97.816406 25.335938 95.253906 26.492188 C 92.691406 27.652344 90.601562 28.683594 87.792969 30.597656 C 83.609375 33.386719 77.257812 38.761719 73.332031 42.5 C 70.292969 45.332031 68.304688 47.328125 65.796875 50.59375 C 62.570312 54.75 58.367188 61.28125 56.074219 65.828125 C 54.386719 69.171875 53.292969 71.96875 52.386719 74.988281 C 51.535156 77.757812 50.84375 80.515625 50.628906 83.136719 C 50.386719 85.519531 50.472656 87.949219 50.769531 90.03125 C 51.042969 91.875 51.210938 93.484375 52.117188 95.179688 C 53.324219 97.410156 56.171875 100.613281 58.351562 102.011719 C 60.09375 103.132812 61.839844 103.523438 63.660156 103.820312 C 65.566406 104.191406 67.355469 104.171875 69.765625 103.921875 C 73.296875 103.476562 78.363281 102.136719 82.679688 100.636719 C 87.226562 99.027344 91.171875 97.074219 96.246094 94.273438 C 103.316406 90.289062 113.238281 84.0625 120.773438 78.324219 C 127.933594 72.867188 137.671875 61.699219 140.445312 61.003906 C 141.082031 60.859375 141.589844 61.050781 141.785156 61.355469 C 141.976562 61.660156 141.515625 62.683594 141.515625 62.683594 " clip-rule="nonzero"/></clipPath><clipPath id="1fff0370d8"><path d="M 120 48 L 204 48 L 204 84 L 120 84 Z M 120 48 " clip-rule="nonzero"/></clipPath><clipPath id="7360a7c94a"><path d="M 117.78125 55.179688 L 203.671875 46.296875 L 206.914062 77.675781 L 121.023438 86.554688 Z M 117.78125 55.179688 " clip-rule="nonzero"/></clipPath><clipPath id="e3f2e755c7"><path d="M 133.902344 67.699219 C 126.882812 71.351562 124.332031 78.929688 122.816406 79.980469 C 122.359375 80.273438 121.636719 80.347656 121.539062 80.195312 C 121.238281 79.65625 125.664062 75.296875 128.023438 72.9375 C 130.523438 70.40625 134.414062 66.34375 136.375 65.652344 C 137.242188 65.402344 138.214844 65.382812 138.589844 65.832031 C 139.234375 66.578125 137.335938 71 137.929688 71.265625 C 139.035156 71.71875 146.652344 59.710938 148.65625 59.425781 C 149.300781 59.359375 149.824219 59.710938 150.125 60.25 C 150.617188 61.089844 150.335938 63.070312 150 64.570312 C 149.621094 66.398438 148.679688 69.097656 147.6875 70.5 C 146.984375 71.546875 145.972656 72.789062 145.242188 72.785156 C 144.671875 72.761719 143.925781 71.863281 143.707031 71.316406 C 143.496094 70.851562 143.609375 70.351562 143.800781 69.84375 C 144.117188 69 144.6875 68.207031 145.792969 67.117188 C 148.601562 64.390625 160.746094 55.246094 163.214844 55.5625 C 163.957031 55.648438 164.441406 56.410156 164.507812 57.054688 C 164.609375 58.019531 163.582031 59.101562 162.628906 60.90625 C 160.167969 65.386719 150.738281 82.703125 148.382812 83.515625 C 147.910156 83.644531 147.394531 83.375 147.199219 83.070312 C 147.003906 82.765625 146.972656 82.441406 147.15625 81.855469 C 147.769531 79.921875 152.761719 73.957031 155.789062 70.230469 C 158.746094 66.59375 161.863281 62.9375 164.878906 59.859375 C 167.527344 57.148438 171.140625 52.789062 172.765625 52.785156 C 173.496094 52.789062 174.207031 53.367188 174.273438 54.011719 C 174.53125 55.691406 168.410156 64.128906 166.953125 64.199219 C 166.382812 64.175781 165.613281 63.035156 165.742188 62.699219 C 165.871094 62.359375 166.714844 62.679688 167.648438 62.257812 C 170.917969 60.863281 185.472656 48.300781 187.886719 48.863281 C 188.554688 49.039062 188.96875 49.890625 188.875 50.550781 C 188.679688 51.789062 183.136719 54.800781 183.347656 55.269531 C 183.453125 55.5 184.015625 55.441406 184.730469 55.289062 C 187.039062 54.804688 196.226562 50.117188 199.449219 49.050781 C 200.945312 48.570312 202.117188 48.125 202.789062 48.296875 C 203.207031 48.417969 203.480469 48.714844 203.585938 48.949219 C 203.699219 49.261719 203.429688 49.777344 203.203125 49.964844 C 202.980469 50.148438 202.328125 50.136719 202.140625 49.910156 C 201.957031 49.6875 202.242188 48.519531 202.546875 48.324219 C 202.777344 48.21875 203.199219 48.335938 203.382812 48.5625 C 203.570312 48.785156 203.507812 49.769531 203.285156 49.953125 C 203.058594 50.140625 202.070312 50 201.964844 49.765625 C 201.777344 49.542969 202.234375 48.4375 202.546875 48.324219 C 202.777344 48.21875 203.472656 48.632812 203.585938 48.949219 C 203.699219 49.261719 203.492188 49.609375 203.050781 50.058594 C 201.269531 51.707031 187.457031 57.28125 184.554688 57.5 C 183.667969 57.59375 183.167969 57.480469 182.804688 57.113281 C 182.355469 56.671875 181.925781 55.660156 182.164062 54.820312 C 182.566406 53.234375 186.671875 48.910156 187.886719 48.863281 C 188.371094 48.8125 189 49.398438 189.042969 49.800781 C 189.082031 50.203125 188.792969 50.558594 188.210938 51.1875 C 186.15625 53.351562 173.800781 61.214844 170.167969 63.054688 C 168.699219 63.773438 167.785156 64.355469 166.953125 64.199219 C 166.375 64.097656 165.761719 63.671875 165.632812 63.195312 C 165.386719 62.410156 166.21875 61.023438 166.980469 59.726562 C 168.15625 57.734375 171.421875 53.167969 172.765625 52.785156 C 173.320312 52.648438 173.917969 52.910156 174.109375 53.214844 C 174.304688 53.519531 174.265625 53.929688 173.996094 54.445312 C 173.066406 56.492188 165.964844 61.699219 161.957031 66.179688 C 157.363281 71.289062 150.59375 82.882812 148.382812 83.515625 C 147.828125 83.65625 147.394531 83.375 147.199219 83.070312 C 147.003906 82.765625 146.972656 82.441406 147.15625 81.855469 C 147.972656 78.761719 161.148438 56.019531 162.558594 56.28125 C 162.886719 56.328125 163.15625 57.355469 162.902344 58.03125 C 162.054688 60.070312 152.351562 64.488281 149.117188 67.019531 C 147.160156 68.523438 144.996094 71.183594 144.730469 70.96875 C 144.460938 70.75 146.625 68.089844 147.183594 66.40625 C 147.878906 64.464844 147.550781 60.515625 148.28125 59.707031 C 148.566406 59.351562 149.210938 59.285156 149.46875 59.421875 C 149.816406 59.628906 150.058594 60.417969 149.8125 61.175781 C 149.226562 63.347656 142.503906 69.898438 140.015625 71.78125 C 138.8125 72.71875 137.679688 73.566406 137.003906 73.3125 C 136.335938 73.136719 135.882812 71.882812 135.78125 70.917969 C 135.632812 69.46875 136.253906 66.070312 137.011719 65.507812 C 137.386719 65.222656 138.136719 65.390625 138.402344 65.605469 C 138.667969 65.824219 138.734375 66.464844 138.472656 67.0625 C 137.800781 68.433594 133.863281 70.464844 131.480469 72.582031 C 128.578125 75.160156 124.171875 81.304688 122.347656 81.738281 C 121.710938 81.882812 121.117188 81.621094 120.832031 81.242188 C 120.542969 80.785156 120.636719 80.125 120.867188 79.207031 C 121.382812 77.121094 124.027344 72.050781 126.144531 69.71875 C 127.902344 67.832031 130.40625 66.109375 132.070312 65.691406 C 133.097656 65.421875 134.507812 65.683594 134.710938 66.070312 C 134.90625 66.375 133.902344 67.699219 133.902344 67.699219 " clip-rule="nonzero"/></clipPath><clipPath id="59c891c8c4"><path d="M 199 48 L 217 48 L 217 61 L 199 61 Z M 199 48 " clip-rule="nonzero"/></clipPath><clipPath id="31a6255417"><path d="M 198.347656 48.285156 L 215.660156 46.496094 L 217.011719 59.582031 L 199.699219 61.371094 Z M 198.347656 48.285156 " clip-rule="nonzero"/></clipPath><clipPath id="d8c5382db0"><path d="M 203.03125 49.085938 C 201.609375 56.550781 201.675781 57.195312 202.289062 57.617188 C 203.253906 58.332031 205.695312 58.324219 207.625 58.125 C 210.117188 57.867188 214.863281 55.015625 215.902344 55.640625 C 216.339844 55.921875 216.464844 57.128906 216.238281 57.3125 C 216.015625 57.5 214.910156 57.046875 214.804688 56.8125 C 214.691406 56.5 215.492188 55.601562 215.824219 55.648438 C 216.074219 55.707031 216.648438 56.539062 216.527344 56.960938 C 216.296875 57.878906 213.097656 59.183594 211.453125 59.761719 C 210.117188 60.222656 208.984375 60.257812 207.695312 60.390625 C 206.328125 60.535156 204.710938 60.621094 203.464844 60.34375 C 202.382812 60.128906 201.359375 59.664062 200.652344 59.089844 C 200.03125 58.582031 199.632812 57.894531 199.46875 57.097656 C 199.199219 56.066406 199.382812 54.667969 199.648438 53.339844 C 199.976562 51.761719 200.59375 49.09375 201.332031 48.367188 C 201.699219 48.003906 202.425781 47.929688 202.683594 48.066406 C 202.941406 48.203125 203.03125 49.085938 203.03125 49.085938 " clip-rule="nonzero"/></clipPath><clipPath id="496217c820"><path d="M 110.003906 7.308594 L 207.773438 7.308594 L 207.773438 99 L 110.003906 99 Z M 110.003906 7.308594 " clip-rule="nonzero"/></clipPath><clipPath id="fc10f55ce8"><path d="M 110.175781 36.523438 C 116.925781 28.949219 117.976562 28.125 119.851562 26.851562 C 122.773438 24.898438 127.949219 21.375 131.699219 20.324219 C 134.699219 19.5 138.148438 19.351562 140.398438 20.101562 C 142.050781 20.625 143.25 21.824219 144.300781 23.175781 C 145.5 24.75 146.25 27.074219 146.699219 29.398438 C 147.300781 32.175781 147.226562 35.398438 147.074219 38.699219 C 146.851562 42.375 146.476562 45.226562 145.351562 50.324219 C 143.175781 60.375 133.949219 87.898438 132.824219 94.5 C 132.523438 96.375 132.898438 97.351562 132.601562 98.101562 C 132.375 98.550781 132.074219 98.925781 131.773438 98.925781 C 131.398438 98.925781 130.648438 98.398438 130.574219 97.726562 C 130.351562 95.324219 137.398438 86.625 142.273438 79.726562 C 149.25 69.675781 160.425781 54.226562 169.199219 43.726562 C 176.550781 34.949219 184.050781 27 190.875 20.625 C 196.273438 15.523438 203.851562 8.476562 206.25 7.800781 C 206.851562 7.648438 207.375 7.726562 207.523438 7.949219 C 207.675781 8.175781 207.523438 9 207.300781 9.148438 C 207.074219 9.300781 206.101562 8.925781 205.949219 8.625 C 205.875 8.398438 206.175781 7.726562 206.398438 7.648438 C 206.699219 7.5 207.449219 7.800781 207.601562 8.101562 C 207.75 8.324219 207.675781 8.625 207.375 9.074219 C 206.175781 11.023438 197.699219 16.949219 192.375 22.050781 C 185.699219 28.5 177.601562 37.125 170.851562 45.074219 C 164.175781 52.875 158.398438 60.675781 152.175781 69.226562 C 145.425781 78.523438 134.699219 98.699219 131.773438 98.925781 C 131.101562 99 130.574219 98.023438 130.351562 97.351562 C 130.125 96.449219 130.574219 95.699219 130.949219 93.976562 C 132.300781 88.425781 138.976562 68.851562 141.449219 58.726562 C 143.25 51.226562 144.824219 44.101562 145.199219 38.773438 C 145.425781 35.324219 145.273438 32.625 144.824219 30.074219 C 144.449219 27.976562 143.851562 26.023438 142.949219 24.601562 C 142.199219 23.476562 141.375 22.425781 140.023438 21.976562 C 138.148438 21.300781 135.074219 21.449219 132.375 22.199219 C 128.851562 23.175781 123.824219 26.476562 121.050781 28.351562 C 119.25 29.550781 118.273438 30.375 116.851562 31.726562 C 115.050781 33.449219 112.648438 37.574219 111.375 37.949219 C 110.925781 38.101562 110.398438 37.875 110.175781 37.648438 C 110.023438 37.425781 110.175781 36.523438 110.175781 36.523438 " clip-rule="nonzero"/></clipPath><clipPath id="276b098909"><path d="M 155.230469 77.539062 L 158.269531 77.539062 L 158.269531 81.683594 L 155.230469 81.683594 Z M 155.230469 77.539062 " clip-rule="nonzero"/></clipPath><clipPath id="9559e0df80"><path d="M 157.800781 79.199219 C 157.050781 79.949219 156.148438 79.425781 156.074219 79.125 C 156 78.824219 156.675781 78 156.898438 78 C 157.125 78 157.574219 79.273438 157.425781 79.425781 C 157.273438 79.574219 156 79.125 156 78.898438 C 156 78.675781 157.050781 78 157.351562 78.148438 C 157.800781 78.375 158.25 80.925781 157.875 81.375 C 157.648438 81.675781 156.898438 81.675781 156.449219 81.523438 C 156 81.375 155.398438 80.851562 155.324219 80.324219 C 155.25 79.648438 156.148438 77.925781 156.675781 77.699219 C 157.050781 77.550781 157.726562 77.773438 157.875 78.074219 C 158.023438 78.300781 157.800781 79.199219 157.800781 79.199219 " clip-rule="nonzero"/></clipPath></defs><g clip-path="url(#342d022c8c)"><g clip-path="url(#98e03e83a6)"><g clip-path="url(#75a736ade4)"><path fill="#000000" d="M 38.640625 24.625 L 140.152344 14.128906 L 153.484375 143.066406 L 51.976562 153.5625 Z M 38.640625 24.625 " fill-opacity="1" fill-rule="nonzero"/></g></g></g><g clip-path="url(#1fff0370d8)"><g clip-path="url(#7360a7c94a)"><g clip-path="url(#e3f2e755c7)"><path fill="#000000" d="M 114.679688 53.183594 L 206.296875 43.707031 L 210.089844 80.386719 L 118.472656 89.859375 Z M 114.679688 53.183594 " fill-opacity="1" fill-rule="nonzero"/></g></g></g><g clip-path="url(#59c891c8c4)"><g clip-path="url(#31a6255417)"><g clip-path="url(#d8c5382db0)"><path fill="#000000" d="M 195.03125 45.605469 L 218.355469 43.195312 L 220.335938 62.335938 L 197.007812 64.75 Z M 195.03125 45.605469 " fill-opacity="1" fill-rule="nonzero"/></g></g></g><g clip-path="url(#496217c820)"><g clip-path="url(#fc10f55ce8)"><path fill="#000000" d="M 107.175781 4.648438 L 210.601562 4.648438 L 210.601562 101.925781 L 107.175781 101.925781 Z M 107.175781 4.648438 " fill-opacity="1" fill-rule="nonzero"/></g></g><g clip-path="url(#276b098909)"><g clip-path="url(#9559e0df80)"><path fill="#000000" d="M 152.324219 74.699219 L 160.875 74.699219 L 160.875 84.523438 L 152.324219 84.523438 Z M 152.324219 74.699219 " fill-opacity="1" fill-rule="nonzero"/></g></g></svg>